<?xml version="1.0" encoding="UTF-8" standalone="no"?><!DOCTYPE svg PUBLIC "-//W3C//DTD SVG 1.1//EN" "http://www.w3.org/Graphics/SVG/1.1/DTD/svg11.dtd"><svg width="100%" height="100%" viewBox="0 0 520 519" version="1.1" xmlns="http://www.w3.org/2000/svg" xmlns:xlink="http://www.w3.org/1999/xlink" xml:space="preserve" xmlns:serif="http://www.serif.com/" style="fill-rule:evenodd;clip-rule:evenodd;stroke-linejoin:round;stroke-miterlimit:2;"><rect id="アートボード1" x="0" y="0" width="519.62" height="518.794" style="fill:none;"/><g id="LINE-LOGO" serif:id="LINE LOGO"><path d="M401.744,510.362l-283.333,0c-59.834,0 -108.334,-48.504 -108.334,-108.334l0,-283.333c0,-59.829 48.5,-108.333 108.334,-108.333l283.333,0c59.829,0 108.333,48.504 108.333,108.333l0,283.333c0,59.83 -48.504,108.334 -108.333,108.334" style="fill:#00b900;fill-rule:nonzero;"/><path d="M441.311,238.377c0,-81.459 -81.667,-147.734 -182.046,-147.734c-100.375,0 -182.046,66.275 -182.046,147.734c0,73.025 64.763,134.187 152.246,145.75c5.929,1.279 14,3.908 16.038,8.979c1.837,4.6 1.2,11.812 0.587,16.458c0,0 -2.133,12.846 -2.596,15.584c-0.791,4.604 -3.658,18.004 15.771,9.816c19.429,-8.187 104.838,-61.733 143.034,-105.696l-0.009,0c26.384,-28.929 39.021,-58.291 39.021,-90.891" style="fill:#fff;fill-rule:nonzero;"/><path d="M222.277,199.011l-12.771,0c-1.959,0 -3.546,1.588 -3.546,3.542l0,79.321c0,1.954 1.587,3.537 3.546,3.537l12.771,0c1.958,0 3.545,-1.583 3.545,-3.537l0,-79.321c0,-1.954 -1.587,-3.542 -3.545,-3.542" style="fill:#00b900;fill-rule:nonzero;"/><path d="M310.167,199.011l-12.767,0c-1.958,0 -3.546,1.588 -3.546,3.542l0,47.125l-36.354,-49.092c-0.083,-0.125 -0.179,-0.246 -0.275,-0.358c-0.008,-0.008 -0.016,-0.017 -0.021,-0.021c-0.07,-0.079 -0.141,-0.154 -0.212,-0.221c-0.025,-0.021 -0.046,-0.041 -0.067,-0.058c-0.062,-0.054 -0.125,-0.113 -0.191,-0.158c-0.03,-0.03 -0.059,-0.05 -0.092,-0.071c-0.058,-0.046 -0.121,-0.088 -0.183,-0.129c-0.034,-0.025 -0.071,-0.042 -0.109,-0.063c-0.062,-0.037 -0.125,-0.075 -0.187,-0.108c-0.038,-0.017 -0.075,-0.038 -0.113,-0.054c-0.066,-0.03 -0.133,-0.059 -0.204,-0.084c-0.037,-0.016 -0.075,-0.029 -0.112,-0.041c-0.071,-0.03 -0.142,-0.05 -0.213,-0.071c-0.042,-0.009 -0.079,-0.021 -0.125,-0.029c-0.067,-0.021 -0.133,-0.034 -0.2,-0.046c-0.05,-0.009 -0.104,-0.017 -0.15,-0.021c-0.062,-0.013 -0.125,-0.017 -0.187,-0.025c-0.063,-0.004 -0.121,-0.008 -0.184,-0.013c-0.046,0 -0.083,-0.004 -0.125,-0.004l-12.766,0c-1.959,0 -3.546,1.588 -3.546,3.542l0,79.321c0,1.954 1.587,3.537 3.546,3.537l12.766,0c1.963,0 3.55,-1.583 3.55,-3.537l0,-47.109l36.392,49.15c0.254,0.355 0.562,0.646 0.9,0.875c0.012,0.009 0.029,0.017 0.037,0.03c0.071,0.045 0.146,0.091 0.221,0.129c0.034,0.021 0.063,0.037 0.1,0.058c0.054,0.029 0.109,0.058 0.171,0.083c0.058,0.025 0.108,0.046 0.171,0.071c0.037,0.013 0.071,0.029 0.104,0.042c0.088,0.029 0.167,0.054 0.242,0.079c0.021,0 0.037,0.008 0.054,0.013c0.287,0.075 0.592,0.116 0.908,0.116l12.767,0c1.962,0 3.55,-1.583 3.55,-3.537l0,-79.321c0,-1.954 -1.588,-3.542 -3.55,-3.542" style="fill:#00b900;fill-rule:nonzero;"/><path d="M191.496,265.55l-34.7,0l0,-62.996c0,-1.954 -1.583,-3.542 -3.542,-3.542l-12.77,0c-1.955,0 -3.546,1.588 -3.546,3.542l0,79.321c0,0.95 0.379,1.812 0.991,2.445c0.013,0.021 0.03,0.038 0.05,0.059c0.017,0.012 0.034,0.025 0.05,0.046c0.638,0.612 1.5,0.991 2.45,0.991l51.017,0c1.954,0 3.542,-1.591 3.542,-3.55l0,-12.766c0,-1.959 -1.588,-3.55 -3.542,-3.55" style="fill:#00b900;fill-rule:nonzero;"/><path d="M380.683,218.874c1.958,0 3.541,-1.587 3.541,-3.546l0,-12.766c0,-1.963 -1.583,-3.55 -3.541,-3.55l-51.017,0c-0.958,0 -1.821,0.383 -2.458,1c-0.013,0.016 -0.029,0.025 -0.042,0.037c-0.021,0.021 -0.042,0.042 -0.054,0.063c-0.608,0.633 -0.988,1.496 -0.988,2.441l0,79.321c0,0.954 0.384,1.813 0.996,2.446c0.013,0.021 0.029,0.042 0.046,0.058c0.017,0.013 0.038,0.034 0.054,0.042c0.634,0.617 1.496,0.996 2.446,0.996l51.017,0c1.958,0 3.541,-1.592 3.541,-3.55l0,-12.767c0,-1.958 -1.583,-3.55 -3.541,-3.55l-34.692,0l0,-13.408l34.692,0c1.958,0 3.541,-1.583 3.541,-3.546l0,-12.767c0,-1.958 -1.583,-3.55 -3.541,-3.55l-34.692,0l0,-13.404l34.692,0Z" style="fill:#00b900;fill-rule:nonzero;"/></g></svg>