<?xml version="1.0" encoding="UTF-8" standalone="no"?><!DOCTYPE svg PUBLIC "-//W3C//DTD SVG 1.1//EN" "http://www.w3.org/Graphics/SVG/1.1/DTD/svg11.dtd"><svg width="100%" height="100%" viewBox="0 0 1685 1653" version="1.1" xmlns="http://www.w3.org/2000/svg" xmlns:xlink="http://www.w3.org/1999/xlink" xml:space="preserve" xmlns:serif="http://www.serif.com/" style="fill-rule:evenodd;clip-rule:evenodd;stroke-linejoin:round;stroke-miterlimit:2;"><rect id="アートボード1" x="0" y="0" width="1684.54" height="1652.1" style="fill:none;"/><path d="M699.452,722.07l-549.196,-413.726l0,0c-6.77,-5.087 -8.703,-14.594 -4.209,-21.977c0,0 71.857,-118.228 202.004,-200.426l0.066,-0.042c3.422,-2.139 8.001,-3.614 13.944,-1.922c1.795,0.511 4.524,1.614 7.651,4.149c3.339,2.707 9.618,9.523 18.106,20.072c17.881,22.224 47.78,62.787 84.366,113.756c18.504,-13.267 88.839,-60.725 183.623,-88.054l-9.43,-32.084c-2.495,-8.489 2.078,-17.449 10.417,-20.407c0,0 132.062,-47.049 307.218,-30.084c3.166,0.212 6.286,1.283 9.206,3.627c1.566,1.258 4.999,4.049 6.018,10.33c0.042,0.259 0.356,1.686 0.147,4.251c-0.114,1.396 -0.901,9.013 -2.246,21.708c-5.152,48.648 -18.581,173.266 -33.046,307.101c4.005,0.634 8.609,1.418 13.693,2.364c16.45,2.925 39.595,9.657 63.87,15.225l37.716,-44.386l-1.666,2.083l2.602,-3.139l0.677,-0.797c1.323,-1.555 2.665,-3.09 4.025,-4.605l2.101,-2.311c10.611,-11.514 22.306,-21.863 35.017,-30.847c1.745,-1.234 3.509,-2.442 5.293,-3.625c5.214,-3.455 10.587,-6.684 16.118,-9.676l1.428,-0.776c11.212,-6.041 22.868,-11.125 34.844,-15.207l2.281,-0.766l3.02,-0.971c0.844,-0.265 1.689,-0.525 2.535,-0.779c9.886,-2.98 19.968,-5.288 30.179,-6.901l1.147,-0.178c2.651,-0.405 5.31,-0.763 7.976,-1.074c1.531,-0.179 3.064,-0.342 4.6,-0.489c3.569,-0.344 7.15,-0.602 10.74,-0.775c1.179,-0.056 2.358,-0.103 3.536,-0.143c1.033,-0.035 2.066,-0.063 3.099,-0.087l1.657,-0.031l2.033,-0.023l68.089,-99.398c4.974,-7.262 14.738,-9.403 22.295,-4.89c0,0 366.463,218.297 346.44,694.592c-0.139,3.314 -1.24,6.363 -3.024,8.885l0.123,2.379c0.446,14.791 -0.379,29.544 -2.374,44.21c-1.286,9.453 -3.021,18.846 -5.189,28.137c-0.805,3.45 -1.666,6.884 -2.588,10.306c-2.226,8.256 -3.753,17.35 -12.397,21.096c-1.378,0.598 -2.837,1.008 -4.325,1.215c-1.79,0.249 -3.618,0.201 -5.393,-0.135c-32.597,-6.16 -65.192,-12.332 -97.788,-18.497l-220.121,-41.613c-27.052,102.361 -77.081,188.642 -154.291,255.503l188.719,256.265c5.251,7.131 4.008,17.125 -2.831,22.753c0,0 -108.284,89.328 -278.934,133.27c-1.357,0.349 -2.754,0.526 -4.156,0.526c-0.364,0 -12.596,0.492 -16.145,-12.498c-0.372,-1.363 -2.236,-8.797 -5.312,-21.188c-11.017,-44.388 -37.903,-153.527 -67.605,-274.274c-38.804,13.628 -81.03,24.759 -126.855,33.262l-23.757,226.024c-0.922,8.768 -8.512,15.301 -17.32,14.908c-72.276,-3.23 -143.411,-20.138 -209.132,-50.353l-47.772,109.136c-3.548,8.104 -12.808,12.024 -21.096,8.932c0,0 -146.109,-54.337 -282.751,-193.958l0.127,0.128c-0.383,-0.383 -10.914,-12.384 0.02,-23.606c1.094,-1.122 7.224,-7.077 17.473,-16.969c9.212,-8.889 21.819,-21.03 37.139,-35.764c-26.192,-28.647 -100.662,-116.54 -153.08,-242.185l-34.377,12.778c-7.818,2.906 -16.581,-0.415 -20.509,-7.773c0,0 -141.767,-263.636 15.462,-638.004c0.834,-2.654 2.355,-5 4.549,-7.043c1.647,-1.534 5.973,-5.65 14.203,-4.225c0.228,0.039 1.597,0.202 3.854,1.153c1.366,0.576 8.813,3.882 21.224,9.423c76.502,34.153 344.506,154.395 534.389,239.619l11.856,-10.485Zm58.357,352.326l-176.661,72.418c-124.319,119.309 -248.634,238.685 -293.259,281.748l-5.132,4.971c101.984,100.122 206.638,151.635 244.236,168.162l60.725,-138.726c26.965,-69.237 103.282,-240.56 169.614,-387.484l0.477,-1.089Zm378.305,138.789c-37.277,28.09 -80.118,52.196 -128.904,72.01c30.076,122.269 57.418,233.264 68.552,278.121l1.135,4.544c120.915,-34.013 206.521,-90.478 237.31,-112.837l-178.093,-241.838Zm-290.039,-174.972l-43.376,17.781c-4.679,10.34 -9.438,20.869 -14.25,31.53l-166.885,381.25c-3.416,8.9 -6.269,16.6 -8.287,22.138c56.887,26.06 118.077,41.517 180.43,46.116l51.361,-488.633l1.007,-10.182Zm-259.706,476.827l-0.094,-0.045l0.112,0.054l-0.018,-0.009Zm-226.434,-466.89l-179.86,66.853c48.889,116.644 117.375,199.14 143.85,228.505l171.162,-161.624l-0.3,0.078c-0.417,0.104 -0.807,0.208 -1.185,0.312l-2.213,0.625c-0.378,0.104 -0.769,0.209 -1.185,0.313l-4.584,1.25c-13.75,2.916 -28.333,2.5 -42.083,-0.417c-2.405,-0.583 -4.784,-1.23 -7.135,-1.946l-74.532,51.113c-19.583,13.333 -49.583,8.75 -73.75,-13.75c-30,-27.5 -40,-71.667 -22.5,-97.917l92.366,-63.344l0.017,-0.124l-92.799,63.468c3.333,-5 7.083,-9.167 12.083,-12.5l81.5,-55.669c0.336,-1.75 0.721,-3.493 1.148,-5.226Zm546.151,-34.537l-24.919,10.215l-2.939,27.964c-9.575,96.812 -19.785,199.595 -24.162,243.617c40.962,-8.121 78.823,-18.484 113.705,-30.986l-25.553,-103.845l-36.132,-146.965Zm63.799,-26.153l-32.616,13.37c18.264,74.302 40.431,164.451 61.842,251.452c44.109,-18.421 82.999,-40.6 116.966,-66.304l-146.192,-198.518Zm187.791,-76.981l-155.993,63.946l140.268,190.474c69.078,-60.594 114.744,-137.925 140.221,-229.496l-124.496,-24.924Zm-497.481,-153.69c-188.785,-84.724 -445.907,-200.08 -520.577,-233.416l-5.436,-2.418c-121.651,302.6 -41.04,526.752 -16.999,581.863l264.325,-98.247c3.032,-3.61 6.369,-6.98 9.946,-10.109l268.741,-237.673Zm650.968,124.776l-46.238,11.512c156.632,29.585 312.46,59.062 360.502,68.151c6.373,-25.435 7.81,-46.417 7.923,-59.265l-322.187,-20.398Zm-39.872,-588.619c5.692,0.793 11.352,1.773 16.972,2.937l1.693,0.356c2.257,0.483 4.506,0.995 6.75,1.537c2.882,0.696 5.752,1.441 8.612,2.234l3.095,0.881c1.659,0.482 3.315,0.982 4.967,1.498c3.589,1.121 7.155,2.32 10.696,3.595l1.544,0.561c2.202,0.808 4.393,1.641 6.577,2.5l1.422,0.563c1.866,0.744 3.723,1.506 5.571,2.284c0.835,0.352 1.668,0.707 2.498,1.066c0.895,0.387 1.787,0.777 2.676,1.17c3.713,1.645 7.391,3.361 11.034,5.149c1.778,0.872 3.546,1.76 5.304,2.665c2.175,1.118 4.335,2.262 6.481,3.43c2.912,1.585 5.799,3.217 8.657,4.892l1.405,0.829c1.464,0.868 2.92,1.748 4.37,2.641c7.325,4.508 14.467,9.316 21.414,14.413c3.185,2.336 6.329,4.733 9.43,7.19l3.578,2.875c3.026,2.492 6.007,5.031 8.941,7.618c2.669,2.351 5.3,4.74 7.893,7.168c1.51,1.414 3.006,2.841 4.489,4.28c1.35,1.31 2.689,2.63 4.016,3.958c1.254,1.256 2.497,2.52 3.736,3.799c3.389,3.5 6.702,7.067 9.935,10.698c9.422,10.576 18.183,21.701 26.232,33.312l3.322,4.877l2.231,3.382c4.258,6.532 8.295,13.206 12.103,20.01c1.844,3.296 3.636,6.624 5.371,9.98c0.432,0.835 0.861,1.671 1.284,2.507c1.581,3.118 3.116,6.262 4.603,9.432c1.369,2.915 2.696,5.85 3.982,8.803c3.468,7.96 6.639,16.065 9.502,24.3c0.336,0.966 0.668,1.933 0.995,2.902c1.215,3.595 2.371,7.216 3.469,10.861c1.33,4.417 2.574,8.874 3.729,13.363c2.546,9.406 4.65,18.901 6.275,28.456l0.282,1.686c0.383,2.336 0.737,4.675 1.062,7.019l0.38,2.844c0.909,7.073 1.548,14.171 1.9,21.278c0.057,1.133 0.106,2.266 0.148,3.401c0.363,9.816 0.178,19.649 -0.597,29.467c-0.192,2.437 -0.42,4.875 -0.686,7.313c-0.249,2.293 -0.532,4.582 -0.847,6.869c-0.274,3.205 -0.606,6.402 -0.995,9.586c-0.278,2.277 -0.586,4.55 -0.924,6.819l-0.276,1.811c-0.154,0.992 -0.313,1.982 -0.479,2.974c-1.205,7.22 -2.704,14.385 -4.483,21.482c-3.006,11.983 -6.813,23.765 -11.362,35.266l-0.695,1.741c-1.861,4.619 -3.841,9.191 -5.939,13.712l-1.648,3.495l-0.699,1.447c-5.809,12.115 -12.675,23.635 -20.47,34.458l-1.39,1.911l-1.877,2.514l-0.81,1.062c-6.088,7.946 -12.686,15.487 -19.738,22.576l-2.224,2.207c-1.493,1.461 -3.005,2.903 -4.537,4.324l-1.152,1.062c-3.082,2.823 -6.24,5.563 -9.469,8.22c-2.147,1.757 -4.323,3.474 -6.528,5.15l-2.657,1.991l-2.682,1.951l-2.708,1.91l-3.198,2.181c-0.761,0.51 -1.525,1.015 -2.291,1.517c-3.693,2.411 -7.45,4.712 -11.263,6.897l-1.434,0.815l-4.475,2.454l-3.203,1.677c-2.036,1.045 -4.088,2.059 -6.153,3.039l232.484,14.719c11.769,-395.452 -254.774,-602.311 -317.533,-645.434l-47.688,69.617Zm-49.887,60.415c-50.213,6.355 -95.618,33.874 -124.534,75.684c-16.25,23.333 -27.083,49.583 -32.5,77.5c-5.833,30.833 -5.833,62.5 0.834,93.333c6.666,32.084 19.166,62.5 37.083,90c17.083,26.25 38.75,49.584 64.167,67.917c24.166,17.917 51.25,30.833 80.416,37.917c15.496,3.646 31.241,5.547 46.96,5.567l1.347,-0.003c12.575,-0.069 25.131,-1.346 37.527,-3.898c26.666,-5.833 52.083,-17.083 73.75,-34.166c20.416,-16.25 37.5,-36.25 49.583,-59.584c12.5,-23.75 20,-49.583 22.917,-76.25c2.916,-28.333 0.833,-57.083 -5,-84.583c-14.167,-55.417 -45.834,-105 -90.417,-140.833c-21.25,-17.084 -45.417,-30.417 -71.25,-39.167c-20.919,-6.973 -42.366,-10.77 -64.131,-10.971l-1.28,-0.008c-5.125,-0.014 -10.266,0.172 -15.422,0.562c-2.275,0.158 -4.542,0.359 -6.795,0.603c-1.068,0.232 -2.159,0.36 -3.255,0.38Zm-471.457,324.051c-129.154,-187.382 -327.604,-473.13 -388.1,-548.318c-2.273,-2.826 -4.649,-5.611 -6.744,-8.002c-92.084,61.177 -151.488,139.842 -172.288,170.047l542.119,408.395l25.013,-22.122Zm52.073,-46.052l-136.813,-465.481c-90.38,26.007 -157.221,71.392 -173.63,83.179c85.392,119.712 198.879,283.377 283.508,406.123l26.935,-23.821Zm91.237,-80.69l15.461,-139.967c0.153,-1.389 0.473,-2.719 0.939,-3.971c14.948,-138.282 29.028,-268.913 34.332,-319.002l0.484,-4.625c-125.243,-9.38 -224.963,14.529 -261.49,25.05l146.612,498.817l63.662,-56.302Zm38.008,-33.614l36.855,-32.594c1.447,-2.442 2.933,-4.883 4.465,-7.311c1.13,-1.795 2.283,-3.582 3.461,-5.358c0.927,-1.396 1.87,-2.784 2.83,-4.162c1.216,-1.747 2.459,-3.478 3.73,-5.187c0.734,-0.988 1.478,-1.97 2.233,-2.943c1.996,-2.577 4.059,-5.095 6.198,-7.539l6.455,-7.597c-17.376,-4.351 -33.366,-8.675 -45.673,-10.864c-4.145,-0.771 -7.939,-1.426 -11.312,-1.975l-9.242,85.53Zm97.402,-99.56c0.165,-0.313 0.33,-0.633 0.495,-0.957l0.625,-1.244c-0.478,0.716 -0.955,1.433 -1.352,2.15l0.232,0.051Zm12.787,-21.784l0.833,-1.667c0.833,-1.25 1.667,-2.083 2.5,-3.333l-3.333,5Z"/></svg>